<?xml version="1.0" encoding="UTF-8" standalone="no"?>
<!-- Created with Inkscape (http://www.inkscape.org/) -->

<svg
   xmlns:dc="http://purl.org/dc/elements/1.1/"
   xmlns:cc="http://creativecommons.org/ns#"
   xmlns:rdf="http://www.w3.org/1999/02/22-rdf-syntax-ns#"
   xmlns:svg="http://www.w3.org/2000/svg"
   xmlns="http://www.w3.org/2000/svg"
   xmlns:sodipodi="http://sodipodi.sourceforge.net/DTD/sodipodi-0.dtd"
   xmlns:inkscape="http://www.inkscape.org/namespaces/inkscape"
   id="svg2"
   version="1.1"
   inkscape:version="0.48.2 r9819"
   width="1024"
   height="353"
   sodipodi:docname="kresba.svg">
  <metadata
     id="metadata8">
    <rdf:RDF>
      <cc:Work
         rdf:about="">
        <dc:format>image/svg+xml</dc:format>
        <dc:type
           rdf:resource="http://purl.org/dc/dcmitype/StillImage" />
        <dc:title />
      </cc:Work>
    </rdf:RDF>
  </metadata>
  <defs
     id="defs6" />
  <sodipodi:namedview
     pagecolor="#ffffff"
     bordercolor="#666666"
     borderopacity="1"
     objecttolerance="10"
     gridtolerance="10"
     guidetolerance="10"
     inkscape:pageopacity="0"
     inkscape:pageshadow="2"
     inkscape:window-width="1920"
     inkscape:window-height="1178"
     id="namedview4"
     showgrid="false"
     inkscape:zoom="0.96873629"
     inkscape:cx="539.77025"
     inkscape:cy="-120.97977"
     inkscape:window-x="-8"
     inkscape:window-y="-8"
     inkscape:window-maximized="1"
     inkscape:current-layer="svg2" />
  <path
     style="fill:none;stroke:#000000;stroke-width:5.32648087;stroke-linecap:butt;stroke-linejoin:miter;stroke-miterlimit:4;stroke-opacity:1;stroke-dasharray:none"
     d="M -1.0427077,282.6131 C 1129.9598,284.64718 1018.6767,281.40234 1018.6767,281.40234"
     id="path2987"
     inkscape:connector-curvature="0" />
  <path
     style="fill:none;stroke:#000000;stroke-width:1px;stroke-linecap:butt;stroke-linejoin:miter;stroke-opacity:1"
     d="m 173.72263,279.27737 c 1.45985,-68.61314 1.45985,-68.61314 1.45985,-68.61314 181.75183,0 181.75183,0 181.75183,0 159.85401,64.96351 159.12408,65.69343 159.12408,65.69343"
     id="path3763"
     inkscape:connector-curvature="0" />
  <path
     style="fill:none;stroke:#000000;stroke-width:1px;stroke-linecap:butt;stroke-linejoin:miter;stroke-opacity:1"
     d="m 119.70803,278.54745 c 2.91971,-176.64234 2.91971,-176.64234 2.91971,-176.64234 213.86861,2.18978 213.86861,2.18978 213.86861,2.18978"
     id="path3765"
     inkscape:connector-curvature="0" />
  <path
     style="fill:none;stroke:#000000;stroke-width:1px;stroke-linecap:butt;stroke-linejoin:miter;stroke-opacity:1"
     d="m 911.67883,166.13869 c 0,0 0,0 -698.54014,-6.56935 0,0 0,0 0.72992,-29.927 697.81022,0.72992 697.81022,0.72992 697.81022,0.72992"
     id="path3767"
     inkscape:connector-curvature="0" />
  <path
     style="fill:none;stroke:#000000;stroke-width:1px;stroke-linecap:butt;stroke-linejoin:miter;stroke-opacity:1"
     d="m 335.76642,128.18248 c 0.72993,-48.905108 0.72993,-48.905108 0.72993,-48.905108 278.83212,1.459854 280.29197,1.459854 280.29197,1.459854 -0.72993,43.795624 -0.72993,44.525544 -0.72993,44.525544"
     id="path3769"
     inkscape:connector-curvature="0" />
  <path
     style="fill:none;stroke:#000000;stroke-width:1px;stroke-linecap:butt;stroke-linejoin:miter;stroke-opacity:1"
     d="m 616.78832,115.0438 c 241.60584,2.9197 241.60584,2.9197 241.60584,2.9197 -0.72993,10.94891 -0.72993,10.94891 -0.72993,10.94891"
     id="path3771"
     inkscape:connector-curvature="0" />
  <path
     style="fill:none;stroke:#000000;stroke-width:1px;stroke-linecap:butt;stroke-linejoin:miter;stroke-opacity:1"
     d="m 423.35766,237.67153 c 487.59125,0.72993 487.59125,0.72993 487.59125,0.72993 0.72992,42.33577 0.72992,42.33577 0.72992,42.33577"
     id="path3773"
     inkscape:connector-curvature="0" />
  <path
     style="fill:none;stroke:#000000;stroke-width:2;stroke-linecap:butt;stroke-linejoin:miter;stroke-opacity:1;stroke-miterlimit:4;stroke-dasharray:none"
     d="m 900,169.05839 c 0.72993,65.69343 0.72993,65.69343 0.72993,65.69343"
     id="path3775"
     inkscape:connector-curvature="0" />
  <path
     style="fill:none;stroke:#000000;stroke-width:1;stroke-linecap:butt;stroke-linejoin:miter;stroke-opacity:1;stroke-miterlimit:4;stroke-dasharray:none;stroke-dashoffset:0"
     d="m 214.59854,161.0292 c 56.93431,49.63503 57.66423,49.63503 57.66423,49.63503"
     id="path3777"
     inkscape:connector-curvature="0" />
  <path
     style="fill:none;stroke:#000000;stroke-width:2;stroke-linecap:butt;stroke-linejoin:miter;stroke-opacity:1;stroke-miterlimit:4;stroke-dasharray:none"
     d="m 910.94891,165.40876 c -0.72993,-35.0365 0,-35.0365 0,-35.0365"
     id="path3781"
     inkscape:connector-curvature="0" />
  <path
     style="fill:none;stroke:#000000;stroke-width:1px;stroke-linecap:butt;stroke-linejoin:miter;stroke-opacity:1"
     d="m 375.91241,216.50365 c 0,-49.63504 0,-49.63504 0,-49.63504"
     id="path3783"
     inkscape:connector-curvature="0" />
  <path
     style="fill:none;stroke:#000000;stroke-width:1px;stroke-linecap:butt;stroke-linejoin:miter;stroke-opacity:1"
     d="m 375.91241,167.59854 c 523.35766,3.64964 522.62774,3.64964 522.62774,3.64964"
     id="path3785"
     inkscape:connector-curvature="0" />
</svg>
