<?xml version="1.0" encoding="UTF-8" standalone="no"?>
<!-- Created with Inkscape (http://www.inkscape.org/) -->

<svg
   xmlns:dc="http://purl.org/dc/elements/1.1/"
   xmlns:cc="http://creativecommons.org/ns#"
   xmlns:rdf="http://www.w3.org/1999/02/22-rdf-syntax-ns#"
   xmlns:svg="http://www.w3.org/2000/svg"
   xmlns="http://www.w3.org/2000/svg"
   xmlns:sodipodi="http://sodipodi.sourceforge.net/DTD/sodipodi-0.dtd"
   xmlns:inkscape="http://www.inkscape.org/namespaces/inkscape"
   width="210mm"
   height="297mm"
   viewBox="0 0 210 297"
   version="1.1"
   id="svg8"
   inkscape:version="0.92.3 (2405546, 2018-03-11)"
   sodipodi:docname="info.svg"
   inkscape:export-filename="M:\OneDrive - Vysoké učení technické v Brně\škola\IIS\view\img\tick.png"
   inkscape:export-xdpi="61.421047"
   inkscape:export-ydpi="61.421047">
  <defs
     id="defs2" />
  <sodipodi:namedview
     id="base"
     pagecolor="#ffffff"
     bordercolor="#666666"
     borderopacity="1.0"
     inkscape:pageopacity="0.0"
     inkscape:pageshadow="2"
     inkscape:zoom="5.6"
     inkscape:cx="235.28215"
     inkscape:cy="626.45971"
     inkscape:document-units="mm"
     inkscape:current-layer="layer1"
     showgrid="false"
     inkscape:window-width="1920"
     inkscape:window-height="1017"
     inkscape:window-x="-4"
     inkscape:window-y="-4"
     inkscape:window-maximized="1" />
  <metadata
     id="metadata5">
    <rdf:RDF>
      <cc:Work
         rdf:about="">
        <dc:format>image/svg+xml</dc:format>
        <dc:type
           rdf:resource="http://purl.org/dc/dcmitype/StillImage" />
        <dc:title />
      </cc:Work>
    </rdf:RDF>
  </metadata>
  <g
     inkscape:label="Vrstva 1"
     inkscape:groupmode="layer"
     id="layer1">
    <path
       style="opacity:1;fill:#ffffff;fill-opacity:1;stroke:none;stroke-width:4.02519703;stroke-miterlimit:4;stroke-dasharray:none;stroke-opacity:1"
       d="M 296.78516 457.73633 A 29.247033 29.247033 0 0 0 267.53906 486.98438 A 29.247033 29.247033 0 0 0 296.78516 516.23047 A 29.247033 29.247033 0 0 0 326.0332 486.98438 A 29.247033 29.247033 0 0 0 296.78516 457.73633 z M 296.80469 467.57617 C 299.32469 467.57617 301.6582 469.72199 301.6582 472.19531 C 301.6582 474.71531 300.49169 477.18945 297.31836 477.18945 C 294.09836 477.18945 292.32379 475.36971 292.23047 472.42969 C 292.1838 469.44303 294.33135 467.57617 296.80469 467.57617 z M 296.33008 481.21875 C 298.52578 481.23379 300.65375 481.34305 301.84375 481.62305 L 301.84375 497.11523 L 305.67188 497.72266 L 305.76367 503.32227 C 305.53034 503.55546 289.52364 503.41602 289.57031 503.41602 C 289.57031 503.41602 289.19746 500.43002 289.24414 497.44336 L 293.25781 497.25586 L 293.30469 487.7832 C 293.21136 487.68985 289.66367 487.92383 289.57031 487.92383 C 289.52365 487.92383 288.82422 481.80937 288.82422 481.57617 C 288.82422 481.43019 292.67057 481.19369 296.33008 481.21875 z "
       transform="scale(0.26458333)"
       id="path817" />
    <g
       aria-label="i"
       style="font-style:normal;font-variant:normal;font-weight:normal;font-stretch:normal;font-size:10.58333302px;line-height:1.25;font-family:'HVD Comic Serif Pro';-inkscape-font-specification:'HVD Comic Serif Pro';letter-spacing:0px;word-spacing:0px;fill:#007680;fill-opacity:1;stroke:none;stroke-width:0.26458332;stroke-opacity:1"
       id="text831" />
  </g>
</svg>
